<?xml version="1.0" standalone="no"?>
<!DOCTYPE svg PUBLIC "-//W3C//DTD SVG 20010904//EN"
 "http://www.w3.org/TR/2001/REC-SVG-20010904/DTD/svg10.dtd">
<svg version="1.0" xmlns="http://www.w3.org/2000/svg"
 width="1879.000000pt" height="1879.000000pt" viewBox="0 0 1879.000000 1879.000000"
 preserveAspectRatio="xMidYMid meet">
<metadata>
Created by potrace 1.14, written by Peter Selinger 2001-2017
</metadata>
<g transform="translate(0.000000,1879.000000) scale(0.100000,-0.100000)"
fill="#000000" stroke="none">
<path d="M9355 10838 c-15 -12 -34 -36 -41 -54 -10 -23 -22 -34 -44 -39 -39
-9 -78 -51 -86 -93 -5 -27 -15 -37 -55 -58 l-49 -24 -72 52 c-95 69 -210 127
-242 121 -62 -12 -96 -103 -90 -248 1 -49 5 -104 8 -121 17 -93 36 -185 40
-192 2 -4 -4 -24 -14 -45 -18 -36 -46 -142 -95 -362 -13 -60 -30 -128 -36
-151 -15 -51 -7 -74 26 -74 24 0 25 -2 19 -40 -8 -51 7 -70 57 -70 22 0 39 -5
39 -11 0 -6 -13 -30 -30 -54 -83 -120 -177 -358 -214 -540 -25 -121 -25 -123
-32 -199 -43 -434 140 -613 653 -642 275 -15 645 -5 800 22 46 8 89 11 95 8 7
-5 8 -2 3 6 -6 10 -1 12 18 8 15 -3 24 -2 22 2 -2 4 24 20 58 35 70 33 71 34
131 93 63 63 116 180 118 263 1 16 2 29 4 29 2 0 27 -9 56 -21 81 -32 187 -30
261 6 268 129 343 606 112 720 -70 35 -123 24 -164 -34 -38 -53 -36 -154 4
-246 23 -53 32 -89 28 -115 -17 -109 -158 -128 -256 -35 -49 46 -77 103 -112
227 -20 66 -42 137 -51 157 -47 107 -72 160 -101 208 -31 52 -31 53 -11 64 17
9 20 17 14 54 -5 39 -3 43 13 40 11 -2 27 2 37 9 17 13 17 18 -4 112 -11 55
-24 122 -27 149 -13 100 -16 121 -26 170 -17 83 -30 139 -41 166 -7 20 -2 56
21 150 37 154 42 186 42 276 0 166 -49 222 -159 183 -52 -19 -144 -70 -215
-121 -37 -27 -39 -27 -67 -11 -21 12 -27 23 -25 42 6 54 -44 128 -89 132 -12
0 -27 2 -34 2 -7 1 -21 20 -31 42 -11 23 -29 49 -42 58 -33 23 -91 20 -124 -6z"/>
<path d="M954 10615 c-388 -57 -721 -333 -798 -662 -17 -76 -18 -250 0 -332
15 -72 68 -191 111 -249 34 -46 109 -120 193 -192 36 -30 67 -57 70 -60 3 -3
52 -46 110 -95 58 -50 110 -94 116 -100 52 -47 132 -113 156 -129 26 -16 28
-20 14 -28 -40 -22 -71 -16 -126 28 -211 165 -234 182 -249 176 -13 -5 -462
-378 -534 -443 -28 -25 -16 -47 71 -135 103 -106 175 -151 377 -235 94 -39
184 -77 200 -84 105 -45 216 -89 255 -101 140 -40 281 -37 450 12 198 57 368
197 431 355 30 76 34 101 33 209 0 130 -16 169 -163 398 -70 109 -120 197
-115 201 5 5 45 17 89 27 44 10 82 18 85 19 96 22 198 49 210 55 20 11 24 46
24 205 0 107 -4 141 -21 190 -12 33 -64 184 -116 335 -109 318 -122 347 -179
416 -61 73 -103 106 -184 148 -140 71 -328 97 -510 71z"/>
<path d="M15549 10606 c-2 -2 -26 -6 -54 -9 -76 -9 -103 -15 -190 -44 -249
-81 -451 -248 -560 -462 -54 -109 -66 -158 -71 -296 -4 -151 14 -245 68 -348
59 -113 99 -157 303 -332 39 -33 72 -62 75 -65 3 -3 55 -48 115 -100 61 -52
119 -103 130 -113 11 -10 39 -33 63 -50 47 -34 42 -47 -18 -47 -29 0 -57 18
-174 110 -76 61 -143 110 -148 110 -15 0 -558 -462 -558 -475 0 -18 92 -121
161 -180 59 -50 152 -105 234 -137 27 -11 64 -26 80 -33 17 -8 59 -26 95 -40
36 -15 126 -51 200 -82 156 -64 150 -62 255 -77 107 -15 241 -3 357 35 150 48
299 153 371 261 60 92 82 168 81 283 -1 144 -14 186 -105 324 -27 40 -49 78
-49 82 0 5 -4 9 -10 9 -5 0 -10 4 -10 10 0 5 -25 47 -55 94 -59 91 -65 106
-37 107 9 0 24 2 32 4 29 7 56 14 145 35 50 12 97 24 105 26 8 2 32 8 53 13
38 9 52 17 53 29 0 4 3 36 7 72 10 84 10 165 2 215 -8 48 -57 196 -207 625
-47 134 -89 205 -166 278 -62 60 -180 121 -282 147 -56 14 -281 30 -291 21z"/>
<path d="M6737 10554 c-1 -1 -54 -4 -117 -8 -210 -11 -305 -18 -309 -22 -3 -3
-6 -17 -7 -32 -8 -104 -14 -189 -19 -267 -3 -49 -8 -115 -10 -145 -3 -30 -7
-98 -10 -150 -3 -52 -8 -120 -10 -150 -3 -30 -7 -95 -10 -145 -3 -49 -8 -119
-10 -155 -3 -36 -7 -99 -10 -140 -3 -41 -7 -104 -10 -140 -2 -36 -7 -110 -11
-165 -3 -55 -7 -116 -9 -135 -2 -19 -6 -87 -10 -150 -4 -63 -8 -131 -10 -150
-2 -19 -6 -83 -10 -141 -4 -58 -8 -118 -9 -133 -4 -32 -4 -32 139 -86 61 -22
119 -45 130 -50 11 -4 70 -27 131 -49 121 -45 120 -45 451 -42 129 1 133 2
138 24 4 20 18 299 17 340 -1 19 2 18 62 -25 23 -16 52 -28 70 -28 l32 0 -3
-57 -3 -58 115 -80 c63 -44 125 -88 137 -97 17 -15 43 -18 147 -19 178 -1 345
1 348 5 7 6 11 42 18 151 4 61 8 126 10 145 2 19 6 82 10 140 3 58 8 125 10
150 2 25 6 81 9 125 10 145 17 229 22 290 2 33 7 92 9 130 3 64 8 134 21 305
6 84 13 187 19 273 3 45 -2 103 -15 165 -10 53 -21 111 -24 127 -32 176 -80
411 -85 417 -6 7 -66 12 -281 23 -52 2 -129 7 -170 10 -41 3 -80 1 -87 -3 -6
-4 -32 -61 -58 -127 -26 -66 -53 -133 -60 -150 -8 -16 -30 -73 -51 -125 -20
-52 -42 -108 -50 -125 -7 -16 -23 -57 -35 -90 -27 -76 -36 -85 -45 -49 -4 16
-21 54 -39 84 -18 30 -92 159 -165 285 -191 333 -170 306 -236 303 -31 -2 -56
-4 -57 -4z"/>
<path d="M13378 10552 c-22 -3 -28 -9 -29 -28 -1 -13 -2 -27 -3 -31 -1 -5 -6
-57 -10 -118 -5 -60 -9 -117 -11 -125 -2 -8 -6 -58 -10 -110 -3 -52 -8 -106
-10 -120 -4 -26 -13 -138 -20 -245 -3 -33 -7 -80 -9 -105 -3 -25 -8 -76 -11
-115 -5 -64 -10 -131 -20 -240 -2 -22 -6 -76 -10 -120 -4 -44 -8 -96 -11 -115
-2 -19 -6 -69 -9 -110 -3 -41 -8 -93 -10 -115 -3 -22 -7 -76 -10 -120 -3 -44
-7 -98 -10 -120 -24 -233 -25 -335 -5 -346 8 -5 65 -29 125 -54 126 -52 217
-91 260 -110 67 -30 89 -34 197 -40 62 -2 169 -8 238 -11 125 -7 170 -7 177 0
4 4 8 38 17 131 13 132 17 171 21 200 2 17 7 66 11 110 3 44 8 89 10 100 2 11
6 51 9 90 3 38 8 86 10 105 3 19 7 60 10 90 3 30 8 78 11 105 4 28 7 66 9 85
5 58 15 163 20 200 2 19 7 60 10 90 3 30 7 64 9 75 2 11 7 47 10 80 4 33 9 74
12 90 7 45 13 91 25 191 l11 92 -117 258 c-64 143 -132 292 -150 331 l-33 72
-339 3 c-186 2 -350 2 -365 0z"/>
<path d="M3237 10493 c-1 -1 -117 -4 -257 -8 -180 -4 -258 -9 -267 -18 -6 -7
-18 -37 -27 -67 -8 -30 -33 -111 -54 -180 -66 -207 -183 -583 -192 -615 -5
-16 -16 -55 -26 -85 -10 -30 -19 -59 -20 -65 -1 -5 -46 -152 -99 -325 -53
-173 -97 -319 -99 -325 -1 -5 -9 -30 -16 -55 -7 -25 -15 -49 -16 -55 -1 -5
-28 -93 -60 -195 -31 -102 -57 -196 -58 -210 -1 -26 -21 -17 299 -140 243 -93
261 -98 340 -105 44 -4 96 -8 115 -11 19 -2 62 -6 95 -9 33 -3 78 -8 100 -10
22 -2 70 -7 106 -10 l67 -7 22 74 c13 40 23 79 23 86 1 21 19 13 125 -53 57
-36 105 -65 108 -65 3 0 17 -9 33 -21 27 -20 33 -20 127 -9 54 6 110 13 124
15 14 2 50 7 80 10 30 3 66 8 80 10 14 2 52 6 85 10 78 9 87 17 81 74 -3 25
-8 75 -11 111 -4 36 -8 76 -10 90 -2 14 -6 61 -10 105 -4 44 -8 87 -10 95 -1
8 -6 51 -9 95 -7 74 -11 117 -21 205 -2 19 -7 67 -10 105 -3 39 -10 111 -16
160 -5 50 -12 108 -14 130 -3 22 -7 69 -10 105 -9 108 -16 183 -20 215 -9 62
-27 245 -27 265 0 22 -15 65 -153 445 -42 116 -79 218 -82 228 -5 16 -22 17
-210 15 -113 -2 -205 -4 -206 -5z"/>
<path d="M11709 10486 c-2 -2 -60 -7 -129 -10 -69 -3 -186 -9 -260 -12 -137
-6 -159 -12 -158 -42 1 -15 -6 -115 -17 -252 -2 -25 -7 -85 -10 -135 -4 -49
-8 -106 -10 -127 -2 -20 -7 -83 -10 -140 -3 -56 -8 -119 -10 -138 -3 -19 -7
-75 -10 -125 -6 -88 -7 -110 -19 -265 -3 -41 -8 -109 -11 -150 -3 -41 -8 -100
-10 -130 -3 -30 -7 -89 -10 -130 -3 -41 -8 -106 -11 -145 -3 -38 -7 -92 -9
-120 -12 -179 -18 -251 -20 -255 -11 -18 37 -41 256 -122 l244 -91 255 -2
c140 -2 260 1 266 6 6 5 12 30 13 56 0 26 3 48 5 51 3 2 53 -23 113 -56 l108
-60 277 0 c152 1 281 4 287 7 5 3 12 51 16 106 4 55 8 114 10 132 2 17 7 78
10 135 3 57 8 119 11 138 2 19 7 71 9 115 3 44 7 98 9 120 3 22 8 85 11 140 4
55 9 118 11 140 2 22 6 76 9 120 3 44 7 103 10 130 3 28 7 84 10 125 3 41 8
107 11 145 9 97 9 194 1 230 -54 236 -145 568 -157 575 -14 8 -108 14 -390 25
-63 3 -124 7 -136 10 -37 8 -52 -15 -58 -90 -4 -38 -9 -88 -11 -110 -7 -63
-13 -124 -20 -200 -4 -38 -8 -80 -10 -92 -2 -12 -7 -61 -10 -110 -4 -48 -8
-89 -10 -91 -1 -2 -16 25 -33 60 -17 35 -44 84 -59 110 -117 197 -294 495
-301 504 -8 12 -46 27 -53 20z"/>
<path d="M4663 10468 c-5 -10 -11 -65 -28 -283 -3 -38 -8 -92 -10 -120 -3 -27
-7 -88 -10 -135 -4 -47 -8 -105 -10 -129 -3 -24 -7 -75 -10 -115 -3 -39 -8
-98 -10 -131 -9 -103 -13 -157 -20 -240 -3 -44 -8 -107 -10 -140 -11 -138 -16
-193 -21 -255 -2 -36 -7 -87 -9 -115 -3 -27 -7 -86 -10 -130 -4 -44 -8 -98
-10 -120 -18 -197 -22 -272 -14 -280 2 -1 108 -43 234 -92 l230 -88 245 2
c135 1 356 2 492 4 135 1 252 5 259 10 14 9 14 5 24 124 11 129 12 143 19 210
l7 61 -101 139 c-56 77 -103 141 -105 143 -2 2 -75 5 -162 6 -149 2 -158 3
-157 22 2 32 16 168 19 184 1 8 6 47 10 85 4 39 9 86 11 105 2 19 6 58 8 85 3
28 10 88 15 135 6 47 13 112 16 145 3 33 8 71 10 85 2 14 6 57 10 95 3 39 8
78 11 87 3 9 -62 154 -150 332 -115 234 -160 316 -173 317 -102 5 -596 2 -600
-3z"/>
<path d="M17408 10435 c-2 -2 -52 -6 -113 -9 -354 -20 -385 -22 -390 -28 -7
-7 -14 -65 -20 -163 -5 -91 -10 -164 -20 -310 -10 -141 -14 -208 -20 -300 -3
-49 -8 -116 -11 -149 -3 -32 -7 -90 -9 -130 -2 -39 -6 -105 -9 -146 -6 -74
-11 -147 -21 -305 -5 -84 -11 -173 -20 -290 -13 -179 -17 -267 -19 -350 l-1
-90 135 -51 c125 -48 158 -61 185 -69 6 -2 49 -19 96 -38 l86 -34 231 0 c167
-1 234 2 241 11 8 9 23 217 25 344 0 29 5 28 57 -12 23 -19 46 -33 51 -30 4 3
18 2 32 -2 22 -5 24 -9 19 -58 l-5 -52 139 -99 138 -100 232 -1 c127 -1 236 2
241 5 5 3 12 49 16 101 3 52 9 129 11 170 6 86 13 189 20 275 3 33 7 94 10
135 10 161 16 237 20 285 2 28 7 93 10 145 3 52 8 118 10 145 2 28 6 95 10
150 3 55 8 116 11 135 10 79 13 268 4 301 -5 19 -11 45 -13 59 -7 39 -36 192
-42 220 -6 27 -34 175 -39 200 -10 58 -20 91 -30 97 -6 4 -31 8 -56 9 -25 1
-81 4 -125 7 -44 3 -136 9 -205 13 -69 3 -128 8 -131 10 -13 8 -29 -28 -152
-336 -69 -173 -131 -328 -138 -345 l-12 -30 -11 35 c-6 20 -47 99 -92 175 -44
77 -126 219 -182 316 -65 112 -109 179 -122 182 -10 3 -20 3 -22 2z"/>
</g>
</svg>
